<?xml version="1.0" standalone="no"?>
<!DOCTYPE svg PUBLIC "-//W3C//DTD SVG 20010904//EN"
 "http://www.w3.org/TR/2001/REC-SVG-20010904/DTD/svg10.dtd">
<svg version="1.0" xmlns="http://www.w3.org/2000/svg"
 width="300.000000pt" height="94.000000pt" viewBox="0 0 300.000000 94.000000"
 preserveAspectRatio="xMidYMid meet">
<metadata>
Created by potrace 1.10, written by Peter Selinger 2001-2011
</metadata>
<g transform="translate(0.000000,94.000000) scale(0.100000,-0.100000)"
fill="#000000" stroke="none">
<path d="M291 663 c-99 -36 -169 -151 -158 -258 21 -204 258 -297 417 -163
l25 20 -87 83 -87 82 84 83 c81 81 84 85 67 103 -51 57 -178 81 -261 50z m176
-28 c72 -30 72 -31 -19 -122 l-83 -83 85 -85 c70 -70 82 -87 70 -96 -67 -46
-169 -56 -235 -21 -81 41 -125 113 -125 202 0 125 93 219 218 220 29 0 69 -7
89 -15z"/>
<path d="M330 549 c0 -14 5 -19 17 -17 26 5 29 38 4 38 -15 0 -21 -6 -21 -21z"/>
<path d="M855 611 c-50 -30 -68 -58 -73 -110 -5 -60 20 -108 71 -136 48 -26
119 -17 158 21 26 24 29 35 29 86 l0 58 -65 0 c-63 0 -65 -1 -65 -25 0 -22 4
-25 40 -25 37 0 40 -2 40 -26 0 -57 -91 -76 -135 -28 -71 77 29 197 114 138
21 -15 24 -15 43 3 20 20 20 20 -24 42 -54 26 -94 27 -133 2z"/>
<path d="M2740 490 l0 -140 25 0 25 0 0 140 0 140 -25 0 -25 0 0 -140z"/>
<path d="M2390 555 c0 -19 -4 -35 -10 -35 -5 0 -10 -9 -10 -21 0 -11 5 -17 10
-14 6 4 10 -13 10 -44 0 -63 23 -91 76 -91 29 0 35 3 30 16 -3 9 -6 20 -6 25
0 6 -10 9 -22 7 -21 -3 -23 2 -26 46 -3 48 -3 48 22 42 23 -6 26 -3 26 19 0
22 -3 25 -25 19 -23 -6 -25 -4 -25 30 0 32 -3 36 -25 36 -22 0 -25 -4 -25 -35z"/>
<path d="M1120 517 c-54 -27 -64 -94 -21 -137 25 -26 35 -29 90 -28 l61 1 0
88 c0 82 -2 89 -20 89 -11 0 -20 -5 -20 -10 0 -7 -6 -7 -19 0 -25 13 -40 13
-71 -3z m82 -62 c10 -22 9 -29 -10 -47 -18 -19 -25 -20 -47 -10 -43 20 -31 82
16 82 22 0 32 -7 41 -25z"/>
<path d="M1300 527 c-1 -1 -2 -41 -3 -90 -2 -84 -1 -87 20 -87 20 0 22 6 25
56 3 64 23 88 56 68 12 -8 18 -27 20 -68 3 -52 5 -56 28 -56 24 0 25 2 19 44
-8 50 6 86 33 86 30 0 42 -22 42 -77 0 -50 1 -53 26 -53 26 0 26 0 22 66 -4
58 -8 70 -32 90 -31 28 -62 30 -94 9 -19 -14 -24 -14 -44 -2 -18 11 -116 22
-118 14z"/>
<path d="M1663 520 c-28 -12 -43 -40 -43 -85 0 -66 71 -107 131 -74 31 16 5
42 -33 34 -28 -7 -58 7 -58 26 0 5 29 9 65 9 36 0 65 2 65 5 0 3 -7 21 -15 40
-19 47 -63 65 -112 45z m67 -45 c11 -13 7 -15 -30 -15 -37 0 -41 2 -30 15 7 8
20 15 30 15 10 0 23 -7 30 -15z"/>
<path d="M1820 528 c0 -2 -1 -65 -3 -141 -2 -136 -2 -137 21 -137 20 0 22 4
22 62 0 48 3 59 12 50 32 -32 109 3 122 54 18 69 -77 147 -122 102 -9 -9 -12
-9 -12 0 0 10 -39 19 -40 10z m118 -60 c39 -39 -17 -100 -58 -63 -34 31 -20
75 25 75 12 0 26 -5 33 -12z"/>
<path d="M2070 517 c-82 -42 -47 -167 47 -167 80 0 114 102 52 154 -34 29 -61
32 -99 13z m70 -45 c18 -14 21 -25 16 -45 -7 -31 -48 -46 -71 -27 -21 17 -19
67 3 79 23 14 27 14 52 -7z"/>
<path d="M2240 439 c0 -88 0 -89 25 -89 23 0 24 4 27 63 3 55 6 62 24 65 14 2
24 12 26 26 4 22 2 23 -49 23 l-53 0 0 -88z"/>
<path d="M2559 515 c-54 -29 -60 -107 -12 -144 18 -15 40 -19 86 -19 l62 0 -2
87 c-1 79 -3 86 -22 89 -12 2 -21 -2 -21 -8 0 -7 -6 -8 -19 0 -26 13 -40 12
-72 -5z m79 -47 c18 -18 15 -43 -8 -63 -17 -15 -24 -16 -45 -7 -43 20 -28 82
20 82 12 0 26 -5 33 -12z"/>
<path d="M545 440 c-4 -6 -3 -16 3 -22 6 -6 12 -6 17 2 4 6 3 16 -3 22 -6 6
-12 6 -17 -2z"/>
<path d="M611 436 c-9 -10 -9 -16 -1 -21 17 -10 37 12 24 25 -8 8 -15 6 -23
-4z"/>
<path d="M472 428 c6 -18 28 -21 28 -4 0 9 -7 16 -16 16 -9 0 -14 -5 -12 -12z"/>
</g>
</svg>
